<?xml version="1.0" encoding="UTF-8"?>
<svg width="300" height="300" viewBox="0 0 300 300" xmlns="http://www.w3.org/2000/svg">
  <!-- Círculo de fundo -->
  <circle cx="150" cy="150" r="150" fill="#3B4BA7"/>
  
  <!-- Órbitas -->
  <circle cx="150" cy="150" r="80" fill="none" stroke="white" stroke-width="2" opacity="0.6"/>
  <circle cx="150" cy="150" r="60" fill="none" stroke="white" stroke-width="2" opacity="0.6"/>
  <circle cx="150" cy="150" r="40" fill="none" stroke="white" stroke-width="2" opacity="0.6"/>
  
  <!-- Pontos nas órbitas -->
  <circle cx="150" cy="70" r="4" fill="white"/>
  <circle cx="150" cy="230" r="4" fill="white"/>
  <circle cx="70" cy="150" r="4" fill="white"/>
  <circle cx="230" cy="150" r="4" fill="white"/>
  
  <!-- Estrelas -->
  <path d="M50,120 l5,5 l-5,5 l-5,-5 z" fill="white" opacity="0.8"/>
  <path d="M250,120 l5,5 l-5,5 l-5,-5 z" fill="white" opacity="0.8"/>
  
  <!-- Globo central -->
  <circle cx="150" cy="150" r="25" fill="#7FD1E4"/>
  
  <!-- Texto circular superior -->
  <path id="textCircle" d="M150,80 A70,70 0 1,1 149.99,80" fill="none"/>
  <text>
    <textPath href="#textCircle" startOffset="50%" text-anchor="middle" fill="white" font-family="Arial, sans-serif" font-size="24">
      GLOBAL VIAGEM
    </textPath>
  </text>
  
  <!-- Texto circular inferior -->
  <path id="textCircle2" d="M150,220 A70,70 0 1,0 149.99,220" fill="none"/>
  <text>
    <textPath href="#textCircle2" startOffset="50%" text-anchor="middle" fill="white" font-family="Arial, sans-serif" font-size="16">
      SUA LIBERDADE ESTÁ AQUI
    </textPath>
  </text>
</svg>
